{
  "accessors": [
    {
      "bufferView": 2,
      "componentType": 5126,
      "count": 441,
      "max": [
        1.5000001192092896,
        0.27077025175094604,
        1.5000003576278687
      ],
      "min": [
        -1.5000004768371582,
        -0.7292300462722778,
        -1.5000008344650269
      ],
      "type": "VEC3"
    },
    {
      "bufferView": 2,
      "byteOffset": 5292,
      "componentType": 5126,
      "count": 441,
      "max": [
        1.0,
        0.9996175765991211,
        1.0
      ],
      "min": [
        -1.0,
        -0.9996175765991211,
        -1.0
      ],
      "type": "VEC3"
    },
    {
      "bufferView": 1,
      "componentType": 5126,
      "count": 441,
      "max": [
        1.0000001192092896,
        1.0
      ],
      "min": [
        0.0,
        -1.564621925354004e-07
      ],
      "type": "VEC2"
    },
    {
      "bufferView": 0,
      "componentType": 5125,
      "count": 2400,
      "type": "SCALAR"
    },
    {
      "bufferView": 2,
      "byteOffset": 10584,
      "componentType": 5126,
      "count": 5142,
      "max": [
        6.774623870849609,
        1.9024951457977295,
        6.767313480377197
      ],
      "min": [
        -6.763515472412109,
        -3.668419361114502,
        -6.7673115730285645
      ],
      "type": "VEC3"
    },
    {
      "bufferView": 2,
      "byteOffset": 72288,
      "componentType": 5126,
      "count": 5142,
      "max": [
        0.9996644854545593,
        1.0,
        0.9996805787086487
      ],
      "min": [
        -0.9999398589134216,
        -1.0,
        -0.9994397759437561
      ],
      "type": "VEC3"
    },
    {
      "bufferView": 1,
      "byteOffset": 3528,
      "componentType": 5126,
      "count": 5142,
      "max": [
        0.65625,
        0.999842643737793
      ],
      "min": [
        0.3437499403953552,
        0.0001574009656906128
      ],
      "type": "VEC2"
    },
    {
      "bufferView": 0,
      "byteOffset": 9600,
      "componentType": 5125,
      "count": 27600,
      "type": "SCALAR"
    },
    {
      "bufferView": 2,
      "byteOffset": 133992,
      "componentType": 5126,
      "count": 4,
      "max": [
        0.3263974189758301,
        -1.3723092079162598,
        -0.08375976979732513
      ],
      "min": [
        0.27093052864074707,
        -1.3795557022094727,
        -0.1650591641664505
      ],
      "type": "VEC3"
    },
    {
      "bufferView": 2,
      "byteOffset": 134040,
      "componentType": 5126,
      "count": 4,
      "max": [
        -0.11324130743741989,
        -0.9934453368186951,
        -0.015581101179122925
      ],
      "min": [
        -0.11324132233858109,
        -0.9934453964233398,
        -0.015581101179122925
      ],
      "type": "VEC3"
    },
    {
      "bufferView": 1,
      "byteOffset": 44664,
      "componentType": 5126,
      "count": 4,
      "max": [
        0.5762131810188293,
        0.14466410875320435
      ],
      "min": [
        0.5657282471656799,
        0.1324034333229065
      ],
      "type": "VEC2"
    },
    {
      "bufferView": 0,
      "byteOffset": 120000,
      "componentType": 5125,
      "count": 6,
      "type": "SCALAR"
    },
    {
      "bufferView": 2,
      "byteOffset": 134088,
      "componentType": 5126,
      "count": 1374,
      "max": [
        7.458467483520508,
        5.891180992126465,
        0.9629247188568115
      ],
      "min": [
        -0.9497027397155762,
        -1.3911454677581787,
        -2.3954885005950928
      ],
      "type": "VEC3"
    },
    {
      "bufferView": 2,
      "byteOffset": 150576,
      "componentType": 5126,
      "count": 1374,
      "max": [
        0.9997870922088623,
        0.9992391467094421,
        0.9999285936355591
      ],
      "min": [
        -0.99773770570755,
        -0.9973065853118896,
        -0.999984860420227
      ],
      "type": "VEC3"
    },
    {
      "bufferView": 1,
      "byteOffset": 44696,
      "componentType": 5126,
      "count": 1374,
      "max": [
        0.65625,
        1.0
      ],
      "min": [
        0.3437499701976776,
        -7.450580596923828e-08
      ],
      "type": "VEC2"
    },
    {
      "bufferView": 0,
      "byteOffset": 120024,
      "componentType": 5125,
      "count": 7200,
      "type": "SCALAR"
    },
    {
      "bufferView": 2,
      "byteOffset": 167064,
      "componentType": 5126,
      "count": 5987,
      "max": [
        7.550884246826172,
        8.023747444152832,
        6.518778324127197
      ],
      "min": [
        -7.879852294921875,
        -7.4415483474731445,
        -6.61000919342041
      ],
      "type": "VEC3"
    },
    {
      "bufferView": 2,
      "byteOffset": 238908,
      "componentType": 5126,
      "count": 5987,
      "max": [
        1.0,
        1.0,
        1.0
      ],
      "min": [
        -1.0,
        -1.0,
        -0.9999961256980896
      ],
      "type": "VEC3"
    },
    {
      "bufferView": 1,
      "byteOffset": 55688,
      "componentType": 5126,
      "count": 5987,
      "max": [
        1.0000001192092896,
        1.0
      ],
      "min": [
        0.0,
        -7.450580596923828e-08
      ],
      "type": "VEC2"
    },
    {
      "bufferView": 0,
      "byteOffset": 148824,
      "componentType": 5125,
      "count": 30456,
      "type": "SCALAR"
    },
    {
      "bufferView": 2,
      "byteOffset": 310752,
      "componentType": 5126,
      "count": 1677,
      "max": [
        0.9847239255905151,
        0.3708944022655487,
        0.7938923835754395
      ],
      "min": [
        -0.9847240447998047,
        -0.998973548412323,
        -0.9846528768539429
      ],
      "type": "VEC3"
    },
    {
      "bufferView": 2,
      "byteOffset": 330876,
      "componentType": 5126,
      "count": 1677,
      "max": [
        1.0,
        1.0,
        1.0
      ],
      "min": [
        -1.0,
        -1.0,
        -0.999995231628418
      ],
      "type": "VEC3"
    },
    {
      "bufferView": 1,
      "byteOffset": 103584,
      "componentType": 5126,
      "count": 1677,
      "max": [
        1.0000001192092896,
        1.0
      ],
      "min": [
        0.0,
        0.0
      ],
      "type": "VEC2"
    },
    {
      "bufferView": 0,
      "byteOffset": 270648,
      "componentType": 5125,
      "count": 9360,
      "type": "SCALAR"
    },
    {
      "bufferView": 2,
      "byteOffset": 351000,
      "componentType": 5126,
      "count": 1931,
      "max": [
        0.9847052693367004,
        1.0000003576278687,
        0.9847053289413452
      ],
      "min": [
        -0.9847054481506348,
        -1.0000003576278687,
        -0.9847056865692139
      ],
      "type": "VEC3"
    },
    {
      "bufferView": 2,
      "byteOffset": 374172,
      "componentType": 5126,
      "count": 1931,
      "max": [
        1.0,
        1.0,
        1.0
      ],
      "min": [
        -1.0,
        -1.0,
        -1.0
      ],
      "type": "VEC3"
    },
    {
      "bufferView": 1,
      "byteOffset": 117000,
      "componentType": 5126,
      "count": 1931,
      "max": [
        0.65625,
        1.0
      ],
      "min": [
        0.3437499701976776,
        -7.450580596923828e-08
      ],
      "type": "VEC2"
    },
    {
      "bufferView": 0,
      "byteOffset": 308088,
      "componentType": 5125,
      "count": 10560,
      "type": "SCALAR"
    },
    {
      "bufferView": 2,
      "byteOffset": 397344,
      "componentType": 5126,
      "count": 1931,
      "max": [
        0.9847052693367004,
        1.0000003576278687,
        0.9847053289413452
      ],
      "min": [
        -0.9847054481506348,
        -1.0000003576278687,
        -0.9847056865692139
      ],
      "type": "VEC3"
    },
    {
      "bufferView": 2,
      "byteOffset": 420516,
      "componentType": 5126,
      "count": 1931,
      "max": [
        1.0,
        1.0,
        1.0
      ],
      "min": [
        -1.0,
        -1.0,
        -1.0
      ],
      "type": "VEC3"
    },
    {
      "bufferView": 1,
      "byteOffset": 132448,
      "componentType": 5126,
      "count": 1931,
      "max": [
        0.65625,
        1.0
      ],
      "min": [
        0.3437499701976776,
        -7.450580596923828e-08
      ],
      "type": "VEC2"
    },
    {
      "bufferView": 0,
      "byteOffset": 350328,
      "componentType": 5125,
      "count": 10560,
      "type": "SCALAR"
    },
    {
      "bufferView": 2,
      "byteOffset": 443688,
      "componentType": 5126,
      "count": 61,
      "max": [
        -1.3907711505889893,
        4.924540042877197,
        4.770118236541748
      ],
      "min": [
        -1.9328622817993164,
        4.328676700592041,
        4.526683330535889
      ],
      "type": "VEC3"
    },
    {
      "bufferView": 2,
      "byteOffset": 444420,
      "componentType": 5126,
      "count": 61,
      "max": [
        1.1230531526962295e-05,
        0.3782006800174713,
        0.9257262945175171
      ],
      "min": [
        -1.1762287613237277e-05,
        0.3781941831111908,
        0.9257237315177917
      ],
      "type": "VEC3"
    },
    {
      "bufferView": 1,
      "byteOffset": 147896,
      "componentType": 5126,
      "count": 61,
      "max": [
        1.0,
        1.0
      ],
      "min": [
        0.0,
        0.0
      ],
      "type": "VEC2"
    },
    {
      "bufferView": 0,
      "byteOffset": 392568,
      "componentType": 5125,
      "count": 288,
      "type": "SCALAR"
    },
    {
      "bufferView": 2,
      "byteOffset": 445152,
      "componentType": 5126,
      "count": 61,
      "max": [
        -1.018561601638794,
        5.424081325531006,
        5.0553812980651855
      ],
      "min": [
        -2.737471580505371,
        3.63438081741333,
        3.9358601570129395
      ],
      "type": "VEC3"
    },
    {
      "bufferView": 2,
      "byteOffset": 445884,
      "componentType": 5126,
      "count": 61,
      "max": [
        -0.33923155069351196,
        0.45546501874923706,
        0.8230887651443481
      ],
      "min": [
        -0.3392414152622223,
        0.45546332001686096,
        0.8230844140052795
      ],
      "type": "VEC3"
    },
    {
      "bufferView": 1,
      "byteOffset": 148384,
      "componentType": 5126,
      "count": 61,
      "max": [
        1.0,
        1.0
      ],
      "min": [
        0.0,
        0.0
      ],
      "type": "VEC2"
    },
    {
      "bufferView": 0,
      "byteOffset": 393720,
      "componentType": 5125,
      "count": 288,
      "type": "SCALAR"
    },
    {
      "bufferView": 2,
      "byteOffset": 446616,
      "componentType": 5126,
      "count": 61,
      "max": [
        1.39715576171875,
        4.922237873077393,
        4.880002975463867
      ],
      "min": [
        0.8550646305084229,
        4.330978870391846,
        4.625587463378906
      ],
      "type": "VEC3"
    },
    {
      "bufferView": 2,
      "byteOffset": 447348,
      "componentType": 5126,
      "count": 61,
      "max": [
        8.196017006412148e-06,
        0.39525869488716125,
        0.9185730814933777
      ],
      "min": [
        -6.886044957354898e-06,
        0.39525124430656433,
        0.9185699820518494
      ],
      "type": "VEC3"
    },
    {
      "bufferView": 1,
      "byteOffset": 148872,
      "componentType": 5126,
      "count": 61,
      "max": [
        1.0,
        1.0
      ],
      "min": [
        0.0,
        0.0
      ],
      "type": "VEC2"
    },
    {
      "bufferView": 0,
      "byteOffset": 394872,
      "componentType": 5125,
      "count": 288,
      "type": "SCALAR"
    },
    {
      "bufferView": 2,
      "byteOffset": 448080,
      "componentType": 5126,
      "count": 61,
      "max": [
        1.883848786354065,
        5.44170618057251,
        5.1812286376953125
      ],
      "min": [
        0.09042882919311523,
        3.616755962371826,
        4.253749847412109
      ],
      "type": "VEC3"
    },
    {
      "bufferView": 2,
      "byteOffset": 448812,
      "componentType": 5126,
      "count": 61,
      "max": [
        0.18955525755882263,
        0.42146924138069153,
        0.8868125081062317
      ],
      "min": [
        0.1895488202571869,
        0.42146599292755127,
        0.8868111371994019
      ],
      "type": "VEC3"
    },
    {
      "bufferView": 1,
      "byteOffset": 149360,
      "componentType": 5126,
      "count": 61,
      "max": [
        1.0,
        1.0
      ],
      "min": [
        0.0,
        0.0
      ],
      "type": "VEC2"
    },
    {
      "bufferView": 0,
      "byteOffset": 396024,
      "componentType": 5125,
      "count": 288,
      "type": "SCALAR"
    }
  ],
  "asset": {
    "extras": {
      "author": "Nancy.Z (https://sketchfab.com/nancy.Z)",
      "license": "CC-BY-4.0 (http://creativecommons.org/licenses/by/4.0/)",
      "source": "https://sketchfab.com/3d-models/character-blockout-cf7a9a24bccf4c1d8b71bb83c3a8eea1",
      "title": "Character Blockout"
    },
    "generator": "Sketchfab-14.13.0",
    "version": "2.0"
  },
  "bufferViews": [
    {
      "buffer": 0,
      "byteLength": 397176,
      "name": "floatBufferViews",
      "target": 34963
    },
    {
      "buffer": 0,
      "byteLength": 149848,
      "byteOffset": 397176,
      "byteStride": 8,
      "name": "floatBufferViews",
      "target": 34962
    },
    {
      "buffer": 0,
      "byteLength": 449544,
      "byteOffset": 547024,
      "byteStride": 12,
      "name": "floatBufferViews",
      "target": 34962
    }
  ],
  "buffers": [
    {
      "byteLength": 996568,
      "uri": "scene.bin"
    }
  ],
  "materials": [
    {
      "doubleSided": true,
      "name": "lambert3",
      "pbrMetallicRoughness": {
        "baseColorFactor": [
          1.0,
          0.8817,
          0.0,
          1.0
        ],
        "metallicFactor": 0.0,
        "roughnessFactor": 0.6
      }
    },
    {
      "doubleSided": true,
      "name": "lambert4",
      "pbrMetallicRoughness": {
        "baseColorFactor": [
          0.5,
          0.0275,
          0.0275,
          1.0
        ],
        "metallicFactor": 0.0,
        "roughnessFactor": 0.6
      }
    },
    {
      "doubleSided": true,
      "name": "lambert1",
      "pbrMetallicRoughness": {
        "baseColorFactor": [
          0.0,
          0.0,
          0.0,
          1.0
        ],
        "metallicFactor": 0.0,
        "roughnessFactor": 0.6
      }
    },
    {
      "doubleSided": true,
      "name": "lambert9",
      "pbrMetallicRoughness": {
        "baseColorFactor": [
          0.0,
          0.0,
          0.0,
          1.0
        ],
        "metallicFactor": 0.0,
        "roughnessFactor": 0.6
      }
    },
    {
      "doubleSided": true,
      "name": "lambert5",
      "pbrMetallicRoughness": {
        "metallicFactor": 0.0,
        "roughnessFactor": 0.6
      }
    },
    {
      "doubleSided": true,
      "name": "lambert10",
      "pbrMetallicRoughness": {
        "baseColorFactor": [
          1.0,
          0.8817,
          0.0,
          1.0
        ],
        "metallicFactor": 0.0,
        "roughnessFactor": 0.6
      }
    },
    {
      "doubleSided": true,
      "name": "lambert7",
      "pbrMetallicRoughness": {
        "metallicFactor": 0.0,
        "roughnessFactor": 0.6
      }
    },
    {
      "doubleSided": true,
      "name": "lambert8",
      "pbrMetallicRoughness": {
        "baseColorFactor": [
          0.0,
          0.0,
          0.0,
          1.0
        ],
        "metallicFactor": 0.0,
        "roughnessFactor": 0.6
      }
    },
    {
      "doubleSided": true,
      "name": "lambert6",
      "pbrMetallicRoughness": {
        "metallicFactor": 0.0,
        "roughnessFactor": 0.6
      }
    }
  ],
  "meshes": [
    {
      "name": "mouth_lambert3_0",
      "primitives": [
        {
          "attributes": {
            "NORMAL": 1,
            "POSITION": 0,
            "TEXCOORD_0": 2
          },
          "indices": 3,
          "material": 0,
          "mode": 4
        }
      ]
    },
    {
      "name": "pCylinder2_lambert4_0",
      "primitives": [
        {
          "attributes": {
            "NORMAL": 5,
            "POSITION": 4,
            "TEXCOORD_0": 6
          },
          "indices": 7,
          "material": 1,
          "mode": 4
        }
      ]
    },
    {
      "name": "pCylinder3_lambert1_0",
      "primitives": [
        {
          "attributes": {
            "NORMAL": 9,
            "POSITION": 8,
            "TEXCOORD_0": 10
          },
          "indices": 11,
          "material": 2,
          "mode": 4
        }
      ]
    },
    {
      "name": "arm_lambert1_0",
      "primitives": [
        {
          "attributes": {
            "NORMAL": 13,
            "POSITION": 12,
            "TEXCOORD_0": 14
          },
          "indices": 15,
          "material": 2,
          "mode": 4
        }
      ]
    },
    {
      "name": "right_feet3_lambert9_0",
      "primitives": [
        {
          "attributes": {
            "NORMAL": 17,
            "POSITION": 16,
            "TEXCOORD_0": 18
          },
          "indices": 19,
          "material": 3,
          "mode": 4
        }
      ]
    },
    {
      "name": "pSphere3_lambert5_0",
      "primitives": [
        {
          "attributes": {
            "NORMAL": 21,
            "POSITION": 20,
            "TEXCOORD_0": 22
          },
          "indices": 23,
          "material": 4,
          "mode": 4
        }
      ]
    },
    {
      "name": "pCylinder4_lambert10_0",
      "primitives": [
        {
          "attributes": {
            "NORMAL": 25,
            "POSITION": 24,
            "TEXCOORD_0": 26
          },
          "indices": 27,
          "material": 5,
          "mode": 4
        }
      ]
    },
    {
      "name": "pCylinder5_lambert10_0",
      "primitives": [
        {
          "attributes": {
            "NORMAL": 29,
            "POSITION": 28,
            "TEXCOORD_0": 30
          },
          "indices": 31,
          "material": 5,
          "mode": 4
        }
      ]
    },
    {
      "name": "pupil_right1_lambert1_0",
      "primitives": [
        {
          "attributes": {
            "NORMAL": 33,
            "POSITION": 32,
            "TEXCOORD_0": 34
          },
          "indices": 35,
          "material": 2,
          "mode": 4
        }
      ]
    },
    {
      "name": "pupil_right1_lambert7_0",
      "primitives": [
        {
          "attributes": {
            "NORMAL": 37,
            "POSITION": 36,
            "TEXCOORD_0": 38
          },
          "indices": 39,
          "material": 6,
          "mode": 4
        }
      ]
    },
    {
      "name": "pupil_left1_lambert8_0",
      "primitives": [
        {
          "attributes": {
            "NORMAL": 41,
            "POSITION": 40,
            "TEXCOORD_0": 42
          },
          "indices": 43,
          "material": 7,
          "mode": 4
        }
      ]
    },
    {
      "name": "pupil_left1_lambert6_0",
      "primitives": [
        {
          "attributes": {
            "NORMAL": 45,
            "POSITION": 44,
            "TEXCOORD_0": 46
          },
          "indices": 47,
          "material": 8,
          "mode": 4
        }
      ]
    }
  ],
  "nodes": [
    {
      "children": [
        1
      ],
      "matrix": [
        1.0,
        0.0,
        0.0,
        0.0,
        0.0,
        2.220446049250313e-16,
        -1.0,
        0.0,
        0.0,
        1.0,
        2.220446049250313e-16,
        0.0,
        0.0,
        0.0,
        0.0,
        1.0
      ],
      "name": "Sketchfab_model"
    },
    {
      "children": [
        2
      ],
      "matrix": [
        0.009999999776482582,
        0.0,
        0.0,
        0.0,
        0.0,
        0.0,
        0.009999999776482582,
        0.0,
        0.0,
        -0.009999999776482582,
        0.0,
        0.0,
        0.0,
        0.0,
        0.0,
        1.0
      ],
      "name": "c9066f7ee08a4364b287bc9643380aaa.fbx"
    },
    {
      "children": [
        3,
        5,
        7,
        9,
        11,
        13,
        15,
        17,
        19,
        22
      ],
      "name": "RootNode"
    },
    {
      "children": [
        4
      ],
      "matrix": [
        1.9182443618774414,
        0.0,
        0.0,
        0.0,
        0.0,
        1.2798359394073486,
        0.0,
        0.0,
        0.0,
        0.0,
        1.4457228183746338,
        0.0,
        -0.29242220520973206,
        2.9148166179656982,
        4.171535968780518,
        1.0
      ],
      "name": "mouth"
    },
    {
      "mesh": 0,
      "name": "mouth_lambert3_0"
    },
    {
      "children": [
        6
      ],
      "name": "pCylinder2"
    },
    {
      "mesh": 1,
      "name": "pCylinder2_lambert4_0"
    },
    {
      "children": [
        8
      ],
      "matrix": [
        1.3642173970705171,
        -0.8409788842416158,
        0.05697915492646206,
        0.0,
        0.8422587245149328,
        1.3643006647012208,
        -0.029413459173458032,
        0.0,
        -0.033050700671625466,
        0.05494931174998522,
        1.6023324993987924,
        0.0,
        -6.136513710021973,
        -1.5725109577178955,
        0.0,
        1.0
      ],
      "name": "pCylinder3"
    },
    {
      "mesh": 2,
      "name": "pCylinder3_lambert1_0"
    },
    {
      "children": [
        10
      ],
      "matrix": [
        -1.222800732711711,
        -0.9579329897912885,
        -0.3983766678101138,
        0.0,
        -1.0039401042664893,
        1.2478488131910734,
        0.08098654684133433,
        0.0,
        0.2616177544268684,
        0.3111574212411078,
        -1.551231260670533,
        0.0,
        6.327849864959717,
        -1.6330769062042236,
        0.0,
        1.0
      ],
      "name": "arm"
    },
    {
      "mesh": 3,
      "name": "arm_lambert1_0"
    },
    {
      "children": [
        12
      ],
      "name": "right_feet3"
    },
    {
      "mesh": 4,
      "name": "right_feet3_lambert9_0"
    },
    {
      "children": [
        14
      ],
      "matrix": [
        5.389160846064219,
        0.03564362104640214,
        0.8322982764690332,
        0.0,
        0.17660724913221146,
        4.848287078008377,
        -1.3511686991087544,
        0.0,
        -0.8108152737027088,
        1.47506844330523,
        5.1868870426279505,
        0.0,
        -0.34429576992988586,
        -1.346672534942627,
        2.262810707092285,
        1.0
      ],
      "name": "pSphere3"
    },
    {
      "mesh": 5,
      "name": "pSphere3_lambert5_0"
    },
    {
      "children": [
        16
      ],
      "matrix": [
        3.9213125705718994,
        0.0,
        0.0,
        0.0,
        0.0,
        1.5100092887878418,
        0.0,
        0.0,
        0.0,
        0.0,
        4.138917922973633,
        0.0,
        -4.114309310913086,
        -6.026145935058594,
        -0.02241736277937889,
        1.0
      ],
      "name": "pCylinder4"
    },
    {
      "mesh": 6,
      "name": "pCylinder4_lambert10_0"
    },
    {
      "children": [
        18
      ],
      "matrix": [
        3.9213125705718994,
        0.0,
        0.0,
        0.0,
        0.0,
        1.5100092887878418,
        0.0,
        0.0,
        0.0,
        0.0,
        4.138917922973633,
        0.0,
        3.7904655933380127,
        -6.026145935058594,
        -0.02241736277937889,
        1.0
      ],
      "name": "pCylinder5"
    },
    {
      "mesh": 7,
      "name": "pCylinder5_lambert10_0"
    },
    {
      "children": [
        20,
        21
      ],
      "name": "pupil_right1"
    },
    {
      "mesh": 8,
      "name": "pupil_right1_lambert1_0"
    },
    {
      "mesh": 9,
      "name": "pupil_right1_lambert7_0"
    },
    {
      "children": [
        23,
        24
      ],
      "name": "pupil_left1"
    },
    {
      "mesh": 10,
      "name": "pupil_left1_lambert8_0"
    },
    {
      "mesh": 11,
      "name": "pupil_left1_lambert6_0"
    }
  ],
  "scene": 0,
  "scenes": [
    {
      "name": "Sketchfab_Scene",
      "nodes": [
        0
      ]
    }
  ]
}
